<svg xmlns="http://www.w3.org/2000/svg" width="1200" height="1200" viewBox="0 0 1200 1200">
  <rect fill="#ffffff" x="239" width="721" height="1199" rx="110" ry="110"/>
  <path fill="#004175" d="M342,19H826v1L779,147H391c-23.312-9.172-95.028-38.628-126-49C282.17,47.157,313.321,26.726,342,19Zm516,0c41.006,4.153,72.92,40.513,81,78V550l-32,31-97-96V147Q834,83.007,858,19ZM263,132l129,47V486l-96,96-33-32V132ZM392,533H810l64,65-63,64H391l-63-63Zm-97,81,97,97v306q-64.494,23.505-129,47V646Zm611,0,33,32V982c0.006,102.07,8.579,180.58-81,195q-24-63.99-48-128V710ZM392,1048q193.48,0.495,387,1,23.5,63.99,47,128H341c-29.926-6.96-81.463-46.68-77-81Q327.993,1072,392,1048Z"/>
</svg>
